PathFileType	4	(X/Y/Z)	RBDS09\RBDS09runT45.trc
DataRate	CameraRate	NumFrames	NumMarkers	Units	OrigDataRate	OrigDataStartFrame	OrigNumFrames
150.000000	150.000000	6	33	mm	150.000000	2812	4500
Frame#	Time	L.ASIS			L.Heel.Bottom			L.Heel.Lateral			L.Heel.Top			L.Iliac.Crest			L.MT1			L.MT5			L.PSIS			L.Shank.Bottom.Lateral			L.Shank.Bottom.Medial			L.Shank.Top.Lateral			L.Shank.Top.Medial			L.Thigh.Bottom.Lateral			L.Thigh.Bottom.Medial			L.Thigh.Top.Lateral			L.Thigh.Top.Medial			R.ASIS			R.ASY			R.Heel.Bottom			R.Heel.Lateral			R.Heel.Top			R.Iliac.Crest			R.MT1			R.MT5			R.PSIS			R.Shank.Bottom.Lateral			R.Shank.Bottom.Medial			R.Shank.Top.Lateral			R.Shank.Top.Medial			R.Thigh.Bottom.Lateral			R.Thigh.Bottom.Medial			R.Thigh.Top.Lateral			R.Thigh.Top.Medial			
		X1	Y1	Z1	X2	Y2	Z2	X3	Y3	Z3	X4	Y4	Z4	X5	Y5	Z5	X6	Y6	Z6	X7	Y7	Z7	X8	Y8	Z8	X9	Y9	Z9	X10	Y10	Z10	X11	Y11	Z11	X12	Y12	Z12	X13	Y13	Z13	X14	Y14	Z14	X15	Y15	Z15	X16	Y16	Z16	X17	Y17	Z17	X18	Y18	Z18	X19	Y19	Z19	X20	Y20	Z20	X21	Y21	Z21	X22	Y22	Z22	X23	Y23	Z23	X24	Y24	Z24	X25	Y25	Z25	X26	Y26	Z26	X27	Y27	Z27	X28	Y28	Z28	X29	Y29	Z29	X30	Y30	Z30	X31	Y31	Z31	X32	Y32	Z32	X33	Y33	Z33	

2813	18.74666666666667	2299.200009262662	978.8916841728205	923.7373944643857	2387.377426758052	37.26173250140644	1021.26131438928	2409.315535383552	52.79395065616223	970.8678918149974	2383.387290521627	85.6136123962003	1009.886519653109	2217.590339462012	1044.027750061654	894.0554073167182	2595.37901919785	100.3812740165278	1016.618511141518	2547.813879095486	62.05089167577712	923.1034534933443	2151.787418519979	1005.242762065479	1018.60947388098	2398.499247391811	196.7890268401882	935.7489110990441	2371.295173142296	194.3694676421484	982.4797454752112	2372.715637362777	271.2797434725442	923.5903557662449	2345.041847466487	270.431193926238	970.255142763365	2307.944591670393	616.5198773651932	895.9722914836898	2265.055518230272	596.4393652935063	952.0536758419265	2251.212739651201	711.2116324726105	888.9216426024138	2212.316929575365	693.096221294863	943.6134576968988	2329.020144884142	951.1147267393785	1152.425163355035	1692.349456258527	313.3191619106506	1133.870947014496	1635.58623460874	484.5074394311745	1110.006850468744	1648.57581188402	449.5597843363281	1156.850408975802	1682.177787730536	472.8006459030187	1116.160632469203	2295.802599203874	1035.172638569111	1189.471155253042	1652.018884202755	277.4220610648121	1077.223686839965	1622.501027762385	308.8153299090423	1179.762593845837	2166.030060691512	1002.425909227757	1095.107981121045	1763.123591206584	460.5369825520477	1166.117891835623	1757.935630469444	483.3310824052696	1120.387788668063	1840.176225445238	496.5263809869712	1173.659107070921	1830.537815842546	519.5612535486323	1127.042851327381	2128.920821235657	585.783370455337	1180.161963089462	2070.043861047036	609.3229345583366	1146.110540999469	2157.249471471331	690.7136640807365	1199.726898634421	2101.271642297443	712.5929420205454	1166.060849353394	
2814	18.75333333333333	2297.345805953698	976.344315315939	923.2387559527957	2389.77310597617	33.49639423006649	1024.762219341147	2411.194698155949	49.38823044368435	974.2395114808329	2385.794792041449	81.79311786800343	1013.767663718598	2215.012977583419	1040.743132141283	894.2297970476826	2597.431584882601	96.90983953131969	1017.76038906056	2548.890567484693	59.33415578745559	924.7640974270315	2150.080120604064	1001.155709738789	1018.091128500129	2398.264952169295	191.8609093307886	938.9132295593784	2371.673345867882	189.0978401431916	986.0894953288812	2371.148676418135	265.9562568482468	926.9385485659814	2343.968032401355	264.7885072430629	973.9763617219284	2303.121157354509	611.843480075744	897.637866149634	2260.80404740526	592.9831468270889	954.6663233626556	2247.512473080014	707.1247186681657	890.3951190013437	2209.151964101282	690.1182945794757	945.8393581901382	2328.121046102032	949.8542420719605	1152.4017017803	1693.444348627431	330.1708964642879	1137.695431294313	1644.69389558284	501.9705383629636	1104.723481977825	1655.985141056323	469.1647142277706	1153.678493478624	1690.738286119999	488.6230022779311	1111.684981577578	2291.876201475347	1033.355013246666	1190.527773829153	1651.866699282145	293.1330958690736	1083.686034743333	1624.012434544721	331.313503814183	1183.98509102514	2164.459504881772	998.2541694098149	1094.470393406592	1771.034739581111	473.934553220376	1163.917404424983	1767.403136808886	494.8532555631425	1117.258711344698	1849.940860872116	505.8078221216063	1170.50511948798	1841.921701959287	527.2778398909387	1123.004508561972	2135.473695216817	579.1240926761707	1180.149182793322	2077.555493717181	600.4388349106528	1143.434180112925	2160.198269268356	685.166762853045	1198.884726639852	2105.07753213024	705.0257050433479	1163.003912521345	
2815	18.76	2295.442233617671	973.3803851152428	922.6751660647659	2387.366657974752	30.79551847661017	1028.207583588027	2408.553502803078	47.06023352960132	977.7275392467495	2384.120231989642	79.06820168895841	1017.963713102556	2212.64969749643	1037.147928575622	894.2965018835105	2595.342666990928	91.73463513879634	1019.448449672361	2545.532036086385	56.30117386883399	926.7247937048818	2148.249684934547	996.6902690992628	1017.617469620404	2395.577040756326	187.2151349058464	942.2726243401315	2369.381589673709	184.4698585993358	989.7360796855768	2367.980860061154	261.1294198462884	930.2392896341108	2341.157552289919	259.9745928788812	977.533657778778	2298.835294946967	607.305966496062	899.2810990578761	2257.047924618203	589.3951958338661	957.0657355924346	2244.023710945572	702.9892009530906	891.8660336642661	2206.206538730228	686.8746664776841	947.9444602583366	2327.089296560258	948.0623147458627	1152.328836457825	1697.080361320781	345.9706776865877	1141.514071200109	1655.912358739991	517.8424757997635	1099.313866708778	1665.741963296911	487.3481743081478	1150.383494731175	1701.394220034671	503.0150388440547	1107.077070940236	2288.396959256042	1030.723110371729	1191.447846129583	1654.212290261965	307.7258365161341	1090.310343373505	1628.349089175103	352.6476081804337	1188.218530288825	2162.778805929704	993.5847485386347	1093.864000727297	1780.962350427432	486.2217310554541	1161.678629944596	1778.731376353801	504.9571583172722	1114.078556772412	1861.396867653332	513.9987458955878	1167.272889333525	1854.849906521041	533.5898970041541	1118.836971641984	2142.162543559361	572.1993922786301	1180.462583094349	2085.433524936677	591.1663772459788	1140.828595816697	2163.1261088755	679.323842061156	1198.081707766361	2109.10893633484	697.024044034785	1159.710030006497	
2816	18.76666666666667	2293.465445304571	970.0709072725163	922.0247141244683	2380.081961491636	29.01200019963768	1031.510019035517	2401.320490774584	45.70090517518395	981.2531429416948	2378.200254130061	77.29765866674785	1022.371441288426	2210.490793559788	1033.235803754447	894.2335827125179	2589.003162914961	85.12333908969622	1021.722742122508	2537.729523148131	53.09151186608991	929.0043518348382	2146.277732874414	991.962591960537	1017.256734553982	2390.330418392701	182.9035070054083	945.76101175981	2364.281359600171	180.5414612565455	993.3285522103763	2363.134689624349	256.8615259151143	933.399793072771	2336.511617701111	256.0587564434735	980.8167925275984	2295.108335214744	602.9657995395911	900.8262670108982	2253.812588165875	585.7259380389452	959.1923658064485	2240.748818834108	698.8626958455746	893.2709641449827	2203.47988172139	683.423099500811	949.8804970618773	2325.923780269129	945.7351530817025	1152.143617309855	1703.17842281193	360.4314163969372	1145.108082955339	1668.98817861248	531.9515514162476	1094.166670688885	1677.62932147127	503.7626949864388	1147.210009822254	1713.905327050627	515.7996702773135	1102.648898119789	2285.462669107898	1027.293844537641	1192.15426647324	1658.964623446506	321.0706006724953	1096.695512683436	1635.375928932906	372.3112133184142	1192.236644754702	2160.984522891002	988.5405775702851	1093.361266767186	1792.784472129155	497.1481771705908	1159.553930206062	1791.750463461452	513.5400302704683	1111.064275366508	1874.453800206691	520.8788688336191	1164.172741112961	1869.1806461959	538.4245269074574	1114.814798783783	2149.145036135792	565.0694531764594	1181.135563101286	2093.722496188616	581.6136709237419	1138.55131979416	2166.217199865673	673.1995156192357	1197.429595084908	2113.421743752519	688.6398284723978	1156.503349683272	
2817	18.77333333333333	2291.387581749804	966.5064611091724	921.2759509856702	2368.02371594244	27.99291286729305	1034.593208841844	2389.572232141938	45.18091893654261	984.7267305933894	2368.002488828974	76.3240978333959	1026.863082792744	2208.50661073598	1028.995940624923	894.0228065333055	2578.407326632859	77.50039424154546	1024.514042452319	2525.581730408479	49.89616780120557	931.5527555171457	2144.145452928042	987.0956786052596	1017.064101719439	2382.445677291108	179.0045671059588	949.2883715004546	2356.288153265776	177.3803961147651	996.7678092893608	2356.526786983242	253.2190525402799	936.3339206032199	2329.94767632438	253.1009402731142	983.7350926059161	2291.907855260564	598.8645148694592	902.2004271357996	2251.076147929335	582.0331547629143	961.0039160626726	2237.668897076971	694.8016281933537	894.5472325895603	2200.947195150633	679.8352729725686	951.602801771806	2324.612118973503	942.8924746898356	1151.794237127853	1711.606335622057	373.2854968869793	1148.292592375841	1683.638332512982	544.1850513223529	1089.647879253637	1691.374652031152	518.1222904824066	1144.402672400741	1728.004698345803	526.8550278055121	1098.70315603015	2283.111579225236	1023.113583543102	1192.599778298358	1666.011118955133	333.0335009279628	1102.477581183472	1644.883613992346	389.8314258125663	1195.852440084214	2159.059771856934	983.2549949091745	1093.020962113722	1806.337466002024	506.5172355459412	1157.687697055915	1806.274656942408	520.558723323311	1108.411457763754	1888.984175725008	526.2961307493322	1161.401423341616	1884.761522724746	541.779304902381	1111.190270487298	2156.604775284517	557.8128485431608	1182.173871484162	2102.479217629848	571.8988566869806	1136.833993273336	2169.665376130728	666.8271689609353	1197.027654081757	2118.06851590321	679.9321053298283	1153.700046148523	
2818	18.78	2289.184637277008	962.791841301846	920.4291698468269	2351.482131296511	27.58574786574451	1037.390106069858	2373.543573459117	45.35133800840673	988.0477310859885	2353.644373017156	75.98288636549272	1031.286714427548	2206.652770271819	1024.424914158782	893.6533613622805	2563.678302722424	69.39485593982587	1027.654381984776	2509.311177415076	46.91877044095092	934.2567379900923	2141.840749782344	982.213829649012	1017.075282475808	2371.891371893797	175.6062215196178	952.7396010552508	2345.393664705155	175.0484972792106	999.9457821060294	2348.084832569374	250.2563019237178	938.9609978572418	2321.414816571892	251.1346403471711	986.2158241508688	2289.140083985907	595.0245620741733	903.3400518479509	2248.757471734445	578.3796517817516	962.476220067216	2234.740382914218	690.861608136991	895.6379259371887	2198.555383017616	676.1969950590947	953.0727896387039	2323.133722470166	939.5803171552866	1151.247481295394	1722.191556229596	384.2966165603065	1150.931255469773	1699.5643545197	554.485250426152	1086.071644921637	1706.668707612631	530.2140486818275	1142.187224561324	1743.414620451601	536.1143197173881	1095.509626565949	2281.324219163407	1018.260660497835	1192.770409898558	1675.224544568455	343.4736487346398	1107.361900836602	1656.609948886997	404.794804022825	1198.933586681211	2156.980046085684	977.8658282119482	1092.88221715553	1821.423690871046	514.1960177630647	1156.206952358461	1822.108844861981	526.027419376616	1106.281684785887	1904.82763856149	530.180728474394	1159.128138501606	1901.432632454975	543.7231902819493	1108.17549368546	2164.731957132517	550.5385142455474	1183.553312036441	2111.770880509825	562.1582318410963	1135.854466397934	2173.655148259559	660.2713872692993	1196.950092236527	2123.097637414849	670.9768234948351	1151.573081202895	
